<svg preserveAspectRatio="none" overflow="visible" style="display: block;" width="22" height="22" viewBox="0 0 22 22" fill="none" xmlns="http://www.w3.org/2000/svg">
<g id="Frame 258">
<path id="Ellipse 123" d="M17.7779 2.77817C18.7993 3.79962 19.6096 5.01225 20.1624 6.34683C20.7152 7.68141 20.9997 9.11181 20.9997 10.5563C20.9997 12.0009 20.7152 13.4313 20.1624 14.7659C19.6096 16.1004 18.7993 17.3131 17.7779 18.3345L9.99971 10.5563L17.7779 2.77817Z" fill="#227DFF"/>
<path id="Ellipse 124" d="M14.9489 15.5061C13.9699 16.4851 12.7226 17.1517 11.3647 17.4218C10.0069 17.6919 8.5994 17.5533 7.32032 17.0235C6.04124 16.4937 4.94799 15.5965 4.17882 14.4453C3.40965 13.2942 2.9991 11.9408 2.9991 10.5563C2.9991 9.17188 3.40965 7.8185 4.17882 6.66736C4.94799 5.51621 6.04124 4.61901 7.32032 4.08919C8.5994 3.55938 10.0069 3.42076 11.3647 3.69085C12.7226 3.96095 13.9699 4.62763 14.9489 5.6066L9.9991 10.5563L14.9489 15.5061Z" fill="#C2DBFF"/>
</g>
</svg>
