<svg width="1920" height="1200" viewBox="0 0 1920 1200" fill="none" xmlns="http://www.w3.org/2000/svg">
<path d="M413.624 335.784H444.344V348.792H413.624V335.784ZM438.104 340.488H419.864V344.04H438.104V340.488ZM410.84 307.896H447.08V312.744H410.84V307.896ZM429.032 313.8C433.832 313.8 437.512 314.344 440.072 315.432C442.632 316.488 443.912 318.056 443.912 320.136C443.912 322.248 442.632 323.848 440.072 324.936C437.512 325.992 433.832 326.52 429.032 326.52C424.296 326.52 420.632 325.992 418.04 324.936C415.448 323.848 414.152 322.248 414.152 320.136C414.152 318.056 415.448 316.488 418.04 315.432C420.632 314.344 424.296 313.8 429.032 313.8ZM429.032 318.12C426.312 318.12 424.296 318.28 422.984 318.6C421.672 318.92 421.016 319.432 421.016 320.136C421.016 320.872 421.672 321.4 422.984 321.72C424.296 322.04 426.312 322.2 429.032 322.2C431.816 322.2 433.848 322.04 435.128 321.72C436.44 321.4 437.096 320.872 437.096 320.136C437.096 319.432 436.44 318.92 435.128 318.6C433.848 318.28 431.816 318.12 429.032 318.12ZM425.864 304.488H432.2V311.352H425.864V304.488ZM408.92 328.584H449.144V333.528H408.92V328.584ZM425.864 324.984H432.2V331.176H425.864V324.984ZM453.076 331.176H493.348V336.36H453.076V331.176ZM469.972 332.952H476.356V349.32H469.972V332.952ZM458.068 322.92H489.124V327.96H458.068V322.92ZM458.068 306.552H488.692V311.544H464.404V324.072H458.068V306.552ZM462.58 314.76H487.732V319.608H462.58V314.76ZM529.441 304.776H535.537V349.224H529.441V304.776ZM511.873 321.816H521.329V326.904H511.873V321.816ZM520.081 305.736H526.033V347.256H520.081V305.736ZM510.433 310.008H516.577C516.577 314.232 516.081 318.168 515.089 321.816C514.097 325.464 512.417 328.808 510.049 331.848C507.713 334.888 504.465 337.608 500.305 340.008L496.705 335.544C500.065 333.528 502.737 331.336 504.721 328.968C506.737 326.568 508.193 323.928 509.089 321.048C509.985 318.136 510.433 314.888 510.433 311.304V310.008ZM499.153 310.008H512.401V315.144H499.153V310.008ZM543.549 333.384H547.149C549.773 333.384 552.125 333.352 554.205 333.288C556.317 333.224 558.317 333.112 560.205 332.952C562.093 332.76 563.997 332.488 565.917 332.136L566.541 337.32C564.525 337.672 562.541 337.944 560.589 338.136C558.669 338.328 556.621 338.456 554.445 338.52C552.301 338.584 549.869 338.616 547.149 338.616H543.549V333.384ZM543.549 308.712H563.661V313.8H549.933V335.4H543.549V308.712ZM572.349 304.776H578.733V349.368H572.349V304.776ZM561.501 320.136H575.085V325.32H561.501V320.136ZM613.961 304.728H620.393V349.176H613.961V304.728ZM618.761 321.768H626.585V327H618.761V321.768ZM602.297 309.336H608.585C608.585 313.784 607.945 317.992 606.665 321.96C605.417 325.928 603.337 329.576 600.425 332.904C597.545 336.2 593.641 339.08 588.713 341.544L585.113 336.696C589.017 334.68 592.233 332.408 594.761 329.88C597.321 327.352 599.209 324.488 600.425 321.288C601.673 318.056 602.297 314.456 602.297 310.488V309.336ZM587.561 309.336H605.609V314.472H587.561V309.336ZM640.576 311.496H661.84V316.536H640.576V311.496ZM651.28 318.552C653.168 318.552 654.832 319 656.272 319.896C657.744 320.792 658.896 322.04 659.728 323.64C660.592 325.208 661.024 327.032 661.024 329.112C661.024 331.192 660.592 333.032 659.728 334.632C658.896 336.2 657.744 337.432 656.272 338.328C654.832 339.224 653.168 339.672 651.28 339.672C649.392 339.672 647.712 339.224 646.24 338.328C644.768 337.432 643.616 336.2 642.784 334.632C641.952 333.032 641.536 331.192 641.536 329.112C641.536 327.032 641.952 325.208 642.784 323.64C643.616 322.04 644.768 320.792 646.24 319.896C647.744 319 649.424 318.552 651.28 318.552ZM651.28 323.832C650.512 323.832 649.808 324.04 649.168 324.456C648.528 324.872 648.032 325.48 647.68 326.28C647.328 327.048 647.152 327.992 647.152 329.112C647.152 330.232 647.328 331.192 647.68 331.992C648.032 332.792 648.528 333.4 649.168 333.816C649.808 334.2 650.512 334.392 651.28 334.392C652.08 334.392 652.784 334.2 653.392 333.816C654 333.4 654.48 332.792 654.832 331.992C655.184 331.192 655.36 330.232 655.36 329.112C655.36 327.992 655.184 327.048 654.832 326.28C654.48 325.48 654 324.872 653.392 324.456C652.784 324.04 652.08 323.832 651.28 323.832ZM672.736 304.776H678.784V349.224H672.736V304.776ZM667.408 322.872H674.704V328.008H667.408V322.872ZM663.376 305.592H669.328V347.352H663.376V305.592ZM648.16 305.976H654.448V314.664H648.16V305.976ZM715.549 304.776H721.981V327.096H715.549V304.776ZM700.765 306.456H707.725C707.725 310.392 706.957 313.816 705.421 316.728C703.917 319.608 701.661 321.992 698.653 323.88C695.645 325.736 691.901 327.16 687.421 328.152L685.261 323.016C689.005 322.28 691.997 321.272 694.237 319.992C696.509 318.68 698.157 317.176 699.181 315.48C700.237 313.752 700.765 311.912 700.765 309.96V306.456ZM687.853 306.456H703.405V311.544H687.853V306.456ZM705.997 310.344H716.365V315.192H705.997V310.344ZM705.709 318.984H716.173V323.784H705.709V318.984ZM692.605 328.728H721.981V341.016H699.037V346.488H692.653V336.264H715.549V333.72H692.605V328.728ZM692.653 343.8H722.845V348.84H692.653V343.8ZM757.497 304.824H763.881V330.84H757.497V304.824ZM761.385 315.48H769.785V320.712H761.385V315.48ZM734.985 332.568H741.321V335.88H757.593V332.568H763.881V348.792H734.985V332.568ZM741.321 340.68V343.8H757.593V340.68H741.321ZM728.937 308.664H755.049V313.704H728.937V308.664ZM741.993 314.856C744.169 314.856 746.073 315.192 747.705 315.864C749.337 316.504 750.617 317.416 751.545 318.6C752.473 319.784 752.937 321.16 752.937 322.728C752.937 324.296 752.473 325.672 751.545 326.856C750.617 328.04 749.337 328.968 747.705 329.64C746.073 330.28 744.169 330.6 741.993 330.6C739.849 330.6 737.945 330.28 736.281 329.64C734.649 328.968 733.369 328.04 732.441 326.856C731.513 325.672 731.049 324.296 731.049 322.728C731.049 321.16 731.513 319.784 732.441 318.6C733.369 317.416 734.649 316.504 736.281 315.864C737.945 315.192 739.849 314.856 741.993 314.856ZM741.993 319.512C740.585 319.512 739.433 319.8 738.537 320.376C737.641 320.92 737.193 321.704 737.193 322.728C737.193 323.784 737.641 324.6 738.537 325.176C739.433 325.72 740.585 325.992 741.993 325.992C743.433 325.992 744.585 325.72 745.449 325.176C746.345 324.6 746.793 323.784 746.793 322.728C746.793 321.704 746.345 320.92 745.449 320.376C744.585 319.8 743.433 319.512 741.993 319.512ZM738.825 304.44H745.161V311.448H738.825V304.44ZM803.861 304.776H810.197V349.224H803.861V304.776ZM775.397 309H781.781V336.648H775.397V309ZM775.397 332.856H779.333C782.597 332.856 786.005 332.728 789.557 332.472C793.109 332.184 796.725 331.672 800.405 330.936L801.077 336.264C797.301 337.064 793.573 337.608 789.893 337.896C786.245 338.152 782.725 338.28 779.333 338.28H775.397V332.856ZM845.617 304.728H852.049V349.32H845.617V304.728ZM850.657 321.192H858.481V326.472H850.657V321.192ZM818.929 333.384H822.673C825.201 333.384 827.569 333.352 829.777 333.288C831.985 333.192 834.129 333.048 836.209 332.856C838.289 332.632 840.417 332.328 842.593 331.944L843.217 337.224C840.977 337.608 838.769 337.912 836.593 338.136C834.449 338.36 832.241 338.504 829.969 338.568C827.697 338.632 825.265 338.664 822.673 338.664H818.929V333.384ZM818.929 308.856H839.665V313.992H825.313V335.88H818.929V308.856ZM867.262 345.672C865.982 345.672 864.926 345.224 864.094 344.328C863.262 343.432 862.846 342.344 862.846 341.064C862.846 339.72 863.262 338.616 864.094 337.752C864.926 336.888 865.982 336.456 867.262 336.456C868.51 336.456 869.55 336.888 870.382 337.752C871.214 338.616 871.63 339.72 871.63 341.064C871.63 342.344 871.214 343.432 870.382 344.328C869.55 345.224 868.51 345.672 867.262 345.672Z" fill="#2E3B49"/>
<path d="M463.008 763.135V787.854H460.109V775.248H457.32V786.596H454.531V763.6H457.32V772.814H460.109V763.135H463.008ZM451.742 766.061V768.521H445.562V779.514C448.256 779.486 450.471 779.35 452.973 778.885L453.191 781.373C450.211 781.975 447.613 782.057 444.168 782.084H442.5V766.061H451.742ZM480.617 765.514V767.92H465.961V765.514H471.785V763.025H474.82V765.514H480.617ZM473.289 768.877C476.871 768.877 479.305 770.682 479.332 773.389C479.305 776.096 476.871 777.9 473.289 777.9C469.707 777.9 467.219 776.096 467.219 773.389C467.219 770.682 469.707 768.877 473.289 768.877ZM473.289 771.174C471.402 771.174 470.172 771.994 470.172 773.389C470.172 774.783 471.402 775.576 473.289 775.549C475.176 775.576 476.434 774.783 476.434 773.389C476.434 771.994 475.176 771.174 473.289 771.174ZM485.43 763.135V769.697H488.875V772.186H485.43V778.611H482.395V763.135H485.43ZM485.43 779.76V787.854H482.395V782.193H468.969V779.76H485.43ZM497.844 767.729C497.844 770.408 499.402 773.088 502.656 774.318L501.043 776.643C498.842 775.795 497.311 774.223 496.422 772.295C495.52 774.51 493.906 776.396 491.555 777.381L489.914 775.057C493.305 773.553 494.891 770.463 494.918 767.729V764.666H497.844V767.729ZM511.27 763.162V778.311H508.371V771.885H505.91V777.545H503.066V763.627H505.91V769.396H508.371V763.162H511.27ZM502.93 778.721C508.098 778.721 511.379 780.416 511.406 783.26C511.379 786.104 508.098 787.826 502.93 787.826C497.707 787.826 494.453 786.104 494.453 783.26C494.453 780.416 497.707 778.721 502.93 778.721ZM502.93 781.018C499.512 781.018 497.488 781.811 497.488 783.26C497.488 784.736 499.512 785.502 502.93 785.502C506.32 785.502 508.344 784.736 508.344 783.26C508.344 781.811 506.32 781.018 502.93 781.018ZM541.566 763.162V781.209H538.504V763.162H541.566ZM542.25 784.9V787.361H525.215V779.486H528.277V784.9H542.25ZM530.191 766.936C530.191 770.381 532.215 773.635 536.125 774.947L534.566 777.354C531.75 776.369 529.74 774.4 528.66 771.885C527.539 774.578 525.502 776.738 522.59 777.791L521.004 775.385C525.023 773.963 527.047 770.49 527.047 766.936V764.529H530.191V766.936ZM565.902 763.162V781.865H562.84V779.705H558V777.572H562.84V763.162H565.902ZM566.477 784.9V787.361H548.348V780.061H551.383V784.9H566.477ZM545.066 774.264C549.633 774.236 555.758 774.182 561.008 773.525L561.172 775.713C559.135 776.055 557.029 776.287 554.938 776.424V781.182H551.902V776.588C549.592 776.684 547.391 776.697 545.449 776.697L545.066 774.264ZM553.133 764.064C556.742 764.064 559.258 765.842 559.285 768.439C559.258 771.092 556.742 772.787 553.133 772.787C549.469 772.787 546.953 771.092 546.953 768.439C546.953 765.842 549.469 764.064 553.133 764.064ZM553.133 766.307C551.164 766.307 549.824 767.1 549.824 768.439C549.824 769.779 551.164 770.572 553.133 770.572C555.02 770.572 556.359 769.779 556.387 768.439C556.359 767.1 555.02 766.307 553.133 766.307ZM588.816 764.639C588.789 771.01 584.605 775.467 577.414 777.49L576.184 775.111C581.721 773.594 585.002 770.709 585.562 767.1H577.523V764.639H588.816ZM596.719 763.162V777.08H593.684V771.693H588.926V769.205H593.684V763.162H596.719ZM596.719 778.064V787.525H580.449V778.064H596.719ZM583.43 780.471V785.119H593.711V780.471H583.43ZM622.75 774.646V777.107H600.219V774.646H622.75ZM611.457 778.748C616.789 778.748 619.988 780.416 620.016 783.287C619.988 786.186 616.789 787.826 611.457 787.826C606.07 787.826 602.844 786.186 602.844 783.287C602.844 780.416 606.07 778.748 611.457 778.748ZM611.457 781.127C607.848 781.127 605.906 781.865 605.934 783.287C605.906 784.709 607.848 785.447 611.457 785.447C614.984 785.447 616.953 784.709 616.98 783.287C616.953 781.865 614.984 781.127 611.457 781.127ZM620.727 764.311V766.799H613.59C614.041 768.85 617.008 770.695 621.684 771.146L620.617 773.553C616.133 773.074 612.797 771.311 611.457 768.795C610.117 771.297 606.836 773.074 602.352 773.553L601.312 771.146C605.893 770.695 608.873 768.85 609.352 766.799H602.27V764.311H620.727ZM644.242 764.666V774.947H632.32V764.666H644.242ZM635.328 767.072V772.568H641.234V767.072H635.328ZM651.598 763.135V777.217H648.59V763.135H651.598ZM652.117 778.666V780.963H645.062C645.35 782.877 648.316 784.982 653.047 785.447L652.008 787.771C648.002 787.361 644.967 785.775 643.477 783.725C641.932 785.803 638.869 787.334 634.836 787.771L633.797 785.447C638.527 785.037 641.562 782.932 641.836 780.963H634.809V778.666H641.918V776.506H644.98V778.666H652.117ZM505.268 803.162V821.018H502.205V803.162H505.268ZM505.951 824.9V827.361H488.916V819.213H491.979V824.9H505.951ZM491.787 804.775C495.533 804.775 498.432 807.373 498.432 810.955C498.432 814.619 495.533 817.162 491.787 817.162C488.014 817.162 485.115 814.619 485.115 810.955C485.115 807.373 488.014 804.775 491.787 804.775ZM491.787 807.428C489.682 807.428 488.068 808.822 488.096 810.955C488.068 813.143 489.682 814.51 491.787 814.51C493.838 814.51 495.451 813.143 495.451 810.955C495.451 808.822 493.838 807.428 491.787 807.428ZM531.408 814.646V817.107H508.877V814.646H531.408ZM520.115 818.748C525.447 818.748 528.646 820.416 528.674 823.287C528.646 826.186 525.447 827.826 520.115 827.826C514.729 827.826 511.502 826.186 511.502 823.287C511.502 820.416 514.729 818.748 520.115 818.748ZM520.115 821.127C516.506 821.127 514.564 821.865 514.592 823.287C514.564 824.709 516.506 825.447 520.115 825.447C523.643 825.447 525.611 824.709 525.639 823.287C525.611 821.865 523.643 821.127 520.115 821.127ZM529.385 804.311V806.799H522.248C522.699 808.85 525.666 810.695 530.342 811.146L529.275 813.553C524.791 813.074 521.455 811.311 520.115 808.795C518.775 811.297 515.494 813.074 511.01 813.553L509.971 811.146C514.551 810.695 517.531 808.85 518.01 806.799H510.928V804.311H529.385ZM561.021 805.787V808.248H540.842V805.787H549.455V803.08H552.463V805.787H561.021ZM562.307 819.104V821.592H552.463V827.881H549.455V821.592H539.721V819.104H562.307ZM550.959 809.369C556.182 809.369 559.326 810.846 559.326 813.553C559.326 816.26 556.182 817.736 550.959 817.736C545.736 817.736 542.592 816.26 542.592 813.553C542.592 810.846 545.736 809.369 550.959 809.369ZM550.959 811.639C547.541 811.639 545.736 812.295 545.764 813.553C545.736 814.811 547.541 815.467 550.959 815.467C554.377 815.467 556.182 814.811 556.182 813.553C556.182 812.295 554.377 811.639 550.959 811.639ZM591.264 803.162V821.291H588.229V815.166H582.35C581.16 816.492 579.41 817.299 577.428 817.299C573.709 817.299 570.893 814.619 570.893 810.982C570.893 807.291 573.709 804.639 577.428 804.639C579.396 804.639 581.133 805.432 582.322 806.744H588.229V803.162H591.264ZM591.893 824.9V827.361H575.049V819.432H578.084V824.9H591.893ZM577.428 807.346C575.295 807.346 573.791 808.768 573.791 810.982C573.791 813.17 575.295 814.592 577.428 814.592C579.451 814.592 580.982 813.17 581.01 810.982C580.982 808.768 579.451 807.346 577.428 807.346ZM583.662 809.205C583.812 809.766 583.908 810.354 583.908 810.982C583.908 811.584 583.826 812.158 583.689 812.705H588.229V809.205H583.662ZM615.463 803.135V815.658H612.428V813.498H606.467V811.174H612.428V808.74H606.795C605.236 812.514 601.627 814.975 596.158 816.205L595.092 813.717C600.902 812.514 603.801 809.957 604.225 806.662H596.459V804.201H607.615C607.615 804.98 607.547 805.719 607.451 806.416H612.428V803.135H615.463ZM615.463 816.615V823.123H602.256V825.174H616.119V827.607H599.221V820.854H612.428V819.021H599.193V816.615H615.463Z" fill="#485361"/>
<g filter="url(#filter0_d_11_366)">
<rect x="407" y="417" width="300" height="300" rx="25.5459" fill="white"/>
<g filter="url(#filter1_d_11_366)">
<rect x="444" y="503" width="225.738" height="128.497" rx="26.0467" fill="#A5AFBF"/>
</g>
<rect x="569.893" y="526.442" width="84.2177" height="84.2177" rx="17.3645" fill="white"/>
<circle cx="612.001" cy="552.923" r="13.4575" fill="#227DFF"/>
<path d="M586.389 594.598C586.389 580.452 597.856 568.985 612.001 568.985C626.147 568.985 637.614 580.452 637.614 594.598V595.032H586.389V594.598Z" fill="#227DFF"/>
<line x1="467.876" y1="542.504" x2="532.993" y2="542.504" stroke="white" stroke-width="2.60467" stroke-linecap="round"/>
<line x1="468.31" y1="589.822" x2="543.846" y2="589.822" stroke="white" stroke-width="1.73645" stroke-linecap="round"/>
<line x1="468.31" y1="581.14" x2="543.846" y2="581.14" stroke="white" stroke-width="1.73645" stroke-linecap="round"/>
<line x1="468.31" y1="598.505" x2="543.846" y2="598.505" stroke="white" stroke-width="1.73645" stroke-linecap="round"/>
<line x1="468.31" y1="607.187" x2="543.846" y2="607.187" stroke="white" stroke-width="1.73645" stroke-linecap="round"/>
<circle cx="471.783" cy="530.783" r="4.34112" fill="white"/>
<circle cx="483.938" cy="530.783" r="4.34112" fill="white"/>
<circle cx="496.094" cy="530.783" r="4.34112" fill="white"/>
</g>
<path d="M892.475 781.715V787.074H895.92V789.562H892.475V794.758H889.439V781.715H892.475ZM885.803 783.438C885.775 789.836 881.646 793.746 874.209 795.223L872.924 792.789C879.104 791.654 882.043 788.975 882.412 785.844H874.1V783.438H885.803ZM892.557 795.77V798.012H879.459V799.816H892.311V802.004H879.459V803.863H893.131V806.133H876.396V795.77H892.557ZM919.709 794.484V796.918H897.178V794.484H919.709ZM917.166 803.48V805.941H899.967V798.75H903.002V803.48H917.166ZM908.416 782.508C913.803 782.508 917.303 784.395 917.33 787.512C917.303 790.656 913.803 792.57 908.416 792.57C903.029 792.57 899.502 790.656 899.502 787.512C899.502 784.395 903.029 782.508 908.416 782.508ZM908.416 784.941C904.834 784.941 902.646 785.871 902.674 787.512C902.646 789.18 904.834 790.109 908.416 790.082C912.025 790.109 914.186 789.18 914.186 787.512C914.186 785.871 912.025 784.941 908.416 784.941ZM937.072 785.27C937.045 788.633 939.014 791.695 942.896 792.926L941.256 795.305C938.562 794.361 936.676 792.57 935.623 790.219C934.529 792.912 932.465 795.031 929.471 796.07L927.857 793.609C931.959 792.27 934.01 788.961 934.01 785.406V783.055H937.072V785.27ZM948.721 781.715V796.262H945.686V788.988H940.764V786.5H945.686V781.715H948.721ZM940.354 796.918C945.604 796.918 948.803 798.668 948.803 801.676C948.803 804.684 945.604 806.406 940.354 806.406C935.131 806.406 931.932 804.684 931.959 801.676C931.932 798.668 935.131 796.918 940.354 796.918ZM940.354 799.27C936.908 799.27 934.967 800.117 934.967 801.676C934.967 803.18 936.908 804.027 940.354 804.027C943.799 804.027 945.768 803.18 945.768 801.676C945.768 800.117 943.799 799.27 940.354 799.27ZM972.92 781.715V794.484H969.885V791.805H964.908V793.691H953.342V782.809H956.377V785.926H961.9V782.809H964.908V784.996H969.885V781.715H972.92ZM972.92 795.496V801.84H959.686V803.727H973.713V806.133H956.65V799.598H969.885V797.875H956.623V795.496H972.92ZM956.377 791.285H961.9V788.25H956.377V791.285ZM964.908 789.48H969.885V787.293H964.908V789.48ZM988.971 783.848V795.523H977.268V783.848H988.971ZM980.248 786.281V793.117H985.99V786.281H980.248ZM995.916 781.715V788.961H999.361V791.504H995.916V799.762H992.881V781.715H995.916ZM996.9 803.48V805.941H980.084V798.012H983.119V803.48H996.9ZM1027.85 781.715V794.977H1024.79V781.715H1027.85ZM1014.51 796.125V798.668H1024.82V796.125H1027.85V806.133H1011.5V796.125H1014.51ZM1014.51 803.672H1024.82V801.047H1014.51V803.672ZM1014.37 782.809C1018.17 782.781 1021.02 785.16 1021.02 788.605C1021.02 791.969 1018.17 794.348 1014.37 794.348C1010.54 794.348 1007.7 791.969 1007.7 788.605C1007.7 785.16 1010.54 782.781 1014.37 782.809ZM1014.37 785.352C1012.21 785.352 1010.65 786.609 1010.68 788.605C1010.65 790.574 1012.21 791.832 1014.37 791.859C1016.51 791.832 1018.04 790.574 1018.04 788.605C1018.04 786.609 1016.51 785.352 1014.37 785.352ZM1053.99 795.496V797.957H1044.18V806.406H1041.17V797.957H1031.46V795.496H1053.99ZM1051.92 783.109V785.516H1044.51C1044.68 788.223 1047.94 790.82 1052.82 791.449L1051.72 793.828C1047.51 793.24 1044.23 791.312 1042.73 788.633C1041.22 791.312 1037.94 793.24 1033.79 793.828L1032.64 791.449C1037.49 790.82 1040.75 788.223 1040.98 785.516H1033.54V783.109H1051.92Z" fill="#485361"/>
<g filter="url(#filter2_d_11_366)">
<rect x="813" y="419" width="300" height="300" rx="25.5459" fill="white"/>
<g filter="url(#filter3_d_11_366)">
<path d="M924.384 510C938.893 510 952.187 515.205 962.501 523.848C949.502 534.741 941.236 551.097 941.236 569.384C941.236 587.67 949.502 604.026 962.501 614.919C952.187 623.562 938.893 628.767 924.384 628.767C891.587 628.767 865 602.18 865 569.384C865 536.587 891.587 510 924.384 510ZM1000.62 510C1033.42 510 1060 536.587 1060 569.384C1060 602.18 1033.42 628.767 1000.62 628.767C986.109 628.767 972.815 623.562 962.501 614.919C975.5 604.026 983.767 587.671 983.767 569.384C983.767 551.097 975.5 534.741 962.501 523.848C972.815 515.204 986.109 510 1000.62 510Z" fill="#227DFF"/>
</g>
<circle cx="903.519" cy="558.951" r="9.62963" fill="white"/>
<path d="M885.062 589.445C885.062 579.252 893.325 570.988 903.518 570.988C913.712 570.988 921.975 579.252 921.975 589.445H885.062Z" fill="white"/>
<circle cx="1019.88" cy="558.951" r="9.62963" fill="white"/>
<path d="M1001.42 589.445C1001.42 579.252 1009.69 570.988 1019.88 570.988C1030.07 570.988 1038.34 579.252 1038.34 589.445H1001.42Z" fill="white"/>
<rect x="956.046" y="568.005" width="1.15136" height="13.4326" rx="0.575682" fill="#A5AFBF" stroke="#A5AFBF" stroke-width="0.383795"/>
<rect x="967.281" y="561.342" width="1.15136" height="13.4326" fill="#A5AFBF" stroke="#A5AFBF" stroke-width="0.383795"/>
<rect x="953.744" y="578.368" width="1.15136" height="5.75684" rx="0.575682" transform="rotate(-90 953.744 578.368)" fill="#A5AFBF" stroke="#A5AFBF" stroke-width="0.383795"/>
<path d="M964.787 564.22L967.857 560.766L970.927 564.22" stroke="#A5AFBF" stroke-width="1.53518" stroke-linecap="round"/>
<circle cx="956.623" cy="565.511" r="4.98925" fill="white" stroke="#A5AFBF" stroke-width="1.53518"/>
<circle cx="967.857" cy="576.118" r="4.98925" fill="white" stroke="#A5AFBF" stroke-width="1.53518"/>
</g>
<path d="M1273.04 767.729C1273.04 770.408 1274.6 773.088 1277.86 774.318L1276.24 776.643C1274.04 775.795 1272.51 774.223 1271.62 772.295C1270.72 774.51 1269.11 776.396 1266.76 777.381L1265.12 775.057C1268.51 773.553 1270.09 770.463 1270.12 767.729V764.666H1273.04V767.729ZM1286.47 763.162V778.311H1283.57V771.885H1281.11V777.545H1278.27V763.627H1281.11V769.396H1283.57V763.162H1286.47ZM1278.13 778.721C1283.3 778.721 1286.58 780.416 1286.61 783.26C1286.58 786.104 1283.3 787.826 1278.13 787.826C1272.91 787.826 1269.65 786.104 1269.65 783.26C1269.65 780.416 1272.91 778.721 1278.13 778.721ZM1278.13 781.018C1274.71 781.018 1272.69 781.811 1272.69 783.26C1272.69 784.736 1274.71 785.502 1278.13 785.502C1281.52 785.502 1283.54 784.736 1283.54 783.26C1283.54 781.811 1281.52 781.018 1278.13 781.018ZM1309.11 763.135V769.15H1312.45V771.693H1309.11V777.682H1306.08V763.135H1309.11ZM1309.11 778.666V783.998H1295.69V785.584H1309.99V787.635H1292.65V782.111H1306.08V780.717H1292.6V778.666H1309.11ZM1289.31 775.193C1291.17 775.193 1293.31 775.193 1295.55 775.111V773.881C1292.77 773.607 1291.06 772.486 1291.06 770.654C1291.06 768.658 1293.39 767.482 1297.03 767.482C1300.66 767.482 1302.99 768.658 1302.99 770.654C1302.99 772.459 1301.32 773.58 1298.58 773.881V775.002C1300.69 774.92 1302.81 774.742 1304.79 774.482L1305.04 776.396C1299.76 777.299 1293.96 777.326 1289.64 777.326L1289.31 775.193ZM1304.13 764.803V766.881H1289.94V764.803H1295.55V762.943H1298.58V764.803H1304.13ZM1297.03 769.396C1295.11 769.424 1293.96 769.834 1293.99 770.654C1293.96 771.529 1295.11 772.021 1297.03 772.021C1298.94 772.021 1300.09 771.529 1300.09 770.654C1300.09 769.834 1298.94 769.424 1297.03 769.396ZM1339.93 764.584V766.307C1339.9 768.426 1339.9 771.256 1339.24 775.275H1342.91V777.736H1337.33V787.826H1334.32V777.736H1328.8V787.826H1325.74V777.736H1320.38V775.275H1336.18C1336.85 771.734 1336.93 769.096 1336.95 767.072H1323.14V764.584H1339.93ZM1353.96 768.576C1353.96 771.42 1356.14 774.154 1360.05 775.248L1358.63 777.6C1355.72 776.807 1353.64 775.098 1352.51 772.896C1351.38 775.303 1349.29 777.176 1346.35 778.064L1344.88 775.686C1348.84 774.482 1350.92 771.584 1350.92 768.576V768.303H1345.64V765.896H1350.92V763.025H1353.98V765.896H1359.23V768.303H1353.96V768.576ZM1365.17 763.135V778.283H1362.1V763.135H1365.17ZM1365.17 779.404V787.854H1362.1V781.865H1348.29V779.404H1365.17ZM1389.23 764.967V766.443C1389.2 768.139 1389.2 770.572 1388.63 773.717L1385.62 773.443C1386.1 770.887 1386.19 769 1386.25 767.482H1376.62V764.967H1389.23ZM1382.99 770.6V775.521C1385.55 775.426 1388.18 775.234 1390.57 774.893L1390.73 777.08C1385.59 778.01 1379.77 778.092 1375.42 778.119L1375.15 775.686C1376.61 775.672 1378.25 775.658 1379.99 775.631V770.6H1382.99ZM1395.13 763.135V770.846H1398.33V773.389H1395.13V781.646H1392.02V763.135H1395.13ZM1395.93 784.9V787.361H1378.84V780.006H1381.9V784.9H1395.93ZM1420.21 763.135V787.881H1417.2V763.135H1420.21ZM1412.61 765.295V774.564H1404.1V779.541C1408 779.514 1411.36 779.322 1415.21 778.666L1415.48 781.154C1411.27 781.893 1407.58 782.029 1403.15 782.029H1400.99V772.158H1409.52V767.756H1400.96V765.295H1412.61ZM1443.64 764.666V774.947H1431.72V764.666H1443.64ZM1434.73 767.072V772.568H1440.63V767.072H1434.73ZM1451 763.135V777.217H1447.99V763.135H1451ZM1451.52 778.666V780.963H1444.46C1444.75 782.877 1447.72 784.982 1452.45 785.447L1451.41 787.771C1447.4 787.361 1444.37 785.775 1442.88 783.725C1441.33 785.803 1438.27 787.334 1434.24 787.771L1433.2 785.447C1437.93 785.037 1440.96 782.932 1441.24 780.963H1434.21V778.666H1441.32V776.506H1444.38V778.666H1451.52ZM1334.13 814.482V816.943H1324.34V818.994C1328.77 819.295 1331.37 820.826 1331.4 823.396C1331.37 826.24 1328.17 827.826 1322.84 827.826C1317.45 827.826 1314.22 826.24 1314.22 823.396C1314.22 820.826 1316.85 819.281 1321.33 818.994V816.943H1311.6V814.482H1334.13ZM1322.84 821.291C1319.23 821.318 1317.29 822.029 1317.31 823.396C1317.29 824.764 1319.23 825.502 1322.84 825.502C1326.37 825.502 1328.33 824.764 1328.36 823.396C1328.33 822.029 1326.37 821.318 1322.84 821.291ZM1332.11 804.229V806.662H1325C1325.48 808.699 1328.43 810.531 1333.06 810.955L1332 813.361C1327.51 812.91 1324.18 811.119 1322.84 808.604C1321.5 811.105 1318.22 812.91 1313.73 813.361L1312.69 810.955C1317.23 810.531 1320.19 808.672 1320.71 806.662H1313.65V804.229H1332.11ZM1355.29 803.135V810.244H1358.74V812.787H1355.29V820.963H1352.21V803.135H1355.29ZM1348.57 805.021C1348.57 811.584 1344.3 816.26 1336.97 818.393L1335.72 815.986C1341.36 814.359 1344.73 811.283 1345.26 807.51H1336.76V805.021H1348.57ZM1356.22 824.9V827.361H1339.41V819.131H1342.5V824.9H1356.22ZM1389.23 822.385V824.873H1366.64V822.385H1376.4V816.697H1379.44V822.385H1389.23ZM1387.29 805.131V807.619H1379.49C1379.59 811.174 1383.25 814.441 1388.33 815.193L1387.12 817.6C1382.94 816.834 1379.52 814.633 1377.94 811.557C1376.34 814.674 1372.95 816.957 1368.83 817.736L1367.63 815.33C1372.56 814.496 1376.2 811.174 1376.29 807.619H1368.53V805.131H1387.29ZM1402.08 803.381C1407.71 803.381 1410.97 804.885 1410.99 807.619C1410.97 810.381 1407.71 811.857 1402.08 811.885C1396.45 811.857 1393.17 810.381 1393.17 807.619C1393.17 804.885 1396.45 803.381 1402.08 803.381ZM1402.08 805.65C1398.31 805.65 1396.34 806.334 1396.37 807.619C1396.34 808.986 1398.31 809.615 1402.08 809.643C1405.91 809.615 1407.85 808.986 1407.85 807.619C1407.85 806.334 1405.91 805.65 1402.08 805.65ZM1413.37 813.061V815.467H1407.52V817.436H1410.56V823.479H1396.5V825.311H1411.24V827.635H1393.52V821.318H1407.58V819.678H1393.49V817.436H1396.67V815.467H1390.84V813.061H1413.37ZM1399.67 817.436H1404.49V815.467H1399.67V817.436Z" fill="#485361"/>
<g filter="url(#filter4_d_11_366)">
<rect x="1213" y="419" width="300" height="300" rx="25.5459" fill="white"/>
<path d="M1286 590.804V541.669C1286 537.117 1289.69 533.427 1294.24 533.427H1308.2C1311.06 533.427 1312.38 536.989 1310.2 538.851C1309.1 539.794 1308.81 541.378 1309.5 542.655L1312.69 548.58C1314.99 552.844 1319.76 555.158 1324.53 554.324L1358.99 548.299C1361.9 547.792 1364.88 548.443 1367.31 550.113L1414.77 582.771C1415.83 583.504 1416.75 584.433 1417.46 585.509L1419.21 588.122C1421.96 592.25 1420.15 597.867 1415.5 599.608C1412.5 600.734 1410.51 603.608 1410.51 606.819V610.273C1410.51 614.489 1407.09 617.907 1402.87 617.907C1398.65 617.907 1395.24 621.362 1395.24 625.578C1395.24 630.599 1390.52 634.329 1385.65 633.113L1384.15 632.739C1379.92 631.683 1375.65 634.31 1374.68 638.562C1373.56 643.538 1368.02 646.096 1363.5 643.73L1347.78 635.507L1302.88 603.466C1301.07 602.175 1298.9 601.481 1296.68 601.481C1290.78 601.481 1286 596.701 1286 590.804Z" fill="#227DFF"/>
<path d="M1360.71 542.02L1328.8 548.583C1326.69 549.015 1324.51 548.456 1322.88 547.068C1318.79 543.603 1319.98 537.021 1325.01 535.194L1346.02 527.561L1369.49 518.772C1372.5 517.645 1375.84 517.859 1378.68 519.358L1400.37 530.799C1403.5 532.454 1407.23 532.534 1410.44 531.015L1423.93 524.618C1431.4 521.08 1440 526.523 1440 534.783V571.955C1440 577.893 1435.19 582.707 1429.25 582.707C1427.07 582.707 1424.94 582.046 1423.15 580.811L1369.36 543.773C1366.83 542.036 1363.71 541.403 1360.71 542.02Z" fill="#227DFF"/>
</g>
<path d="M417.366 269V249.734H421.214V257.326H428.494V249.734H432.316V269H428.494V260.68H421.214V269H417.366ZM442.816 269.364C439.176 269.364 435.822 266.556 435.822 261.72C435.822 256.884 439.176 254.076 442.816 254.076C446.456 254.076 449.81 256.884 449.81 261.72C449.81 266.556 446.456 269.364 442.816 269.364ZM442.816 266.244C444.792 266.244 445.91 264.476 445.91 261.72C445.91 258.99 444.792 257.196 442.816 257.196C440.84 257.196 439.722 258.99 439.722 261.72C439.722 264.476 440.84 266.244 442.816 266.244ZM457.04 269.364C455.09 269.364 452.958 268.506 451.502 267.31L453.244 264.918C454.544 265.932 455.792 266.504 457.144 266.504C458.6 266.504 459.25 265.88 459.25 264.97C459.25 263.878 457.742 263.384 456.208 262.786C454.362 262.084 452.308 260.966 452.308 258.522C452.308 255.922 454.414 254.076 457.742 254.076C459.848 254.076 461.486 254.96 462.682 255.87L460.966 258.184C459.926 257.43 458.912 256.936 457.846 256.936C456.52 256.936 455.896 257.508 455.896 258.34C455.896 259.406 457.248 259.796 458.782 260.368C460.706 261.096 462.838 262.058 462.838 264.762C462.838 267.31 460.836 269.364 457.04 269.364ZM470.474 269.364C467.016 269.364 465.69 267.154 465.69 263.904V257.456H463.636V254.622L465.898 254.44L466.34 250.514H469.512V254.44H473.1V257.456H469.512V263.904C469.512 265.568 470.188 266.348 471.488 266.348C471.956 266.348 472.528 266.192 472.918 266.036L473.542 268.818C472.762 269.078 471.748 269.364 470.474 269.364Z" fill="#227DFF"/>
<defs>
<filter id="filter0_d_11_366" x="381.454" y="399.969" width="351.092" height="351.092" filterUnits="userSpaceOnUse" color-interpolation-filters="sRGB">
<feFlood flood-opacity="0" result="BackgroundImageFix"/>
<feColorMatrix in="SourceAlpha" type="matrix" values="0 0 0 0 0 0 0 0 0 0 0 0 0 0 0 0 0 0 127 0" result="hardAlpha"/>
<feOffset dy="8.51528"/>
<feGaussianBlur stdDeviation="12.7729"/>
<feComposite in2="hardAlpha" operator="out"/>
<feColorMatrix type="matrix" values="0 0 0 0 0 0 0 0 0 0 0 0 0 0 0 0 0 0 0.25 0"/>
<feBlend mode="normal" in2="BackgroundImageFix" result="effect1_dropShadow_11_366"/>
<feBlend mode="normal" in="SourceGraphic" in2="effect1_dropShadow_11_366" result="shape"/>
</filter>
<filter id="filter1_d_11_366" x="435.318" y="503" width="243.103" height="145.862" filterUnits="userSpaceOnUse" color-interpolation-filters="sRGB">
<feFlood flood-opacity="0" result="BackgroundImageFix"/>
<feColorMatrix in="SourceAlpha" type="matrix" values="0 0 0 0 0 0 0 0 0 0 0 0 0 0 0 0 0 0 127 0" result="hardAlpha"/>
<feOffset dy="8.68224"/>
<feGaussianBlur stdDeviation="4.34112"/>
<feComposite in2="hardAlpha" operator="out"/>
<feColorMatrix type="matrix" values="0 0 0 0 0 0 0 0 0 0 0 0 0 0 0 0 0 0 0.25 0"/>
<feBlend mode="normal" in2="BackgroundImageFix" result="effect1_dropShadow_11_366"/>
<feBlend mode="normal" in="SourceGraphic" in2="effect1_dropShadow_11_366" result="shape"/>
</filter>
<filter id="filter2_d_11_366" x="787.454" y="401.969" width="351.092" height="351.092" filterUnits="userSpaceOnUse" color-interpolation-filters="sRGB">
<feFlood flood-opacity="0" result="BackgroundImageFix"/>
<feColorMatrix in="SourceAlpha" type="matrix" values="0 0 0 0 0 0 0 0 0 0 0 0 0 0 0 0 0 0 127 0" result="hardAlpha"/>
<feOffset dy="8.51528"/>
<feGaussianBlur stdDeviation="12.7729"/>
<feComposite in2="hardAlpha" operator="out"/>
<feColorMatrix type="matrix" values="0 0 0 0 0 0 0 0 0 0 0 0 0 0 0 0 0 0 0.25 0"/>
<feBlend mode="normal" in2="BackgroundImageFix" result="effect1_dropShadow_11_366"/>
<feBlend mode="normal" in="SourceGraphic" in2="effect1_dropShadow_11_366" result="shape"/>
</filter>
<filter id="filter3_d_11_366" x="856.975" y="510" width="211.053" height="134.816" filterUnits="userSpaceOnUse" color-interpolation-filters="sRGB">
<feFlood flood-opacity="0" result="BackgroundImageFix"/>
<feColorMatrix in="SourceAlpha" type="matrix" values="0 0 0 0 0 0 0 0 0 0 0 0 0 0 0 0 0 0 127 0" result="hardAlpha"/>
<feOffset dy="8.0248"/>
<feGaussianBlur stdDeviation="4.0124"/>
<feComposite in2="hardAlpha" operator="out"/>
<feColorMatrix type="matrix" values="0 0 0 0 0 0 0 0 0 0 0 0 0 0 0 0 0 0 0.25 0"/>
<feBlend mode="normal" in2="BackgroundImageFix" result="effect1_dropShadow_11_366"/>
<feBlend mode="normal" in="SourceGraphic" in2="effect1_dropShadow_11_366" result="shape"/>
</filter>
<filter id="filter4_d_11_366" x="1187.45" y="401.969" width="351.092" height="351.092" filterUnits="userSpaceOnUse" color-interpolation-filters="sRGB">
<feFlood flood-opacity="0" result="BackgroundImageFix"/>
<feColorMatrix in="SourceAlpha" type="matrix" values="0 0 0 0 0 0 0 0 0 0 0 0 0 0 0 0 0 0 127 0" result="hardAlpha"/>
<feOffset dy="8.51528"/>
<feGaussianBlur stdDeviation="12.7729"/>
<feComposite in2="hardAlpha" operator="out"/>
<feColorMatrix type="matrix" values="0 0 0 0 0 0 0 0 0 0 0 0 0 0 0 0 0 0 0.25 0"/>
<feBlend mode="normal" in2="BackgroundImageFix" result="effect1_dropShadow_11_366"/>
<feBlend mode="normal" in="SourceGraphic" in2="effect1_dropShadow_11_366" result="shape"/>
</filter>
</defs>
</svg>
